HIERARCHY
ROOT pelvis
{
  OFFSET 0 100 0
  CHANNELS 6 Xposition Yposition Zposition Zrotation Xrotation Yrotation
  JOINT pelvis_right_femur
  {
    OFFSET -10.78128 -3.44521 -0.5502486
    CHANNELS 3 Zrotation Xrotation Yrotation
    JOINT right_femur_tibia
    {
      OFFSET -0.8047443 -44.0398 -0.1307829
      CHANNELS 3 Zrotation Xrotation Yrotation
      JOINT right_tibia_foot
      {
        OFFSET 3.006224 -47.83518 -5
        CHANNELS 3 Zrotation Xrotation Yrotation
        End Site
        {
          OFFSET 0 -5 15
        }
      }
    }
  }
  JOINT pelvis_left_femur
  {
    OFFSET 10.78128 -3.44521 -0.5502486
    CHANNELS 3 Zrotation Xrotation Yrotation
    JOINT left_femur_tibia
    {
      OFFSET 0.8047443 -44.0398 -0.1307829
      CHANNELS 3 Zrotation Xrotation Yrotation
      JOINT left_tibia_foot
      {
        OFFSET -4.370144 -48.10324 -4.275266
        CHANNELS 3 Zrotation Xrotation Yrotation
        End Site
        {
          OFFSET 0 -5 15
        }
      }
    }
  }
  JOINT pelvis_spine1
  {
    OFFSET 0 6.468898 -3.129235
    CHANNELS 3 Zrotation Xrotation Yrotation
    JOINT spine1
    {
      OFFSET 0 23.15396 4.99043
      CHANNELS 3 Zrotation Xrotation Yrotation
      JOINT spine2
      {
        OFFSET 0 20.79997 -5.064912
        CHANNELS 3 Zrotation Xrotation Yrotation
        JOINT neck
        {
          OFFSET 0 14.38658 9.616178
          CHANNELS 3 Zrotation Xrotation Yrotation
          End Site
          {
            OFFSET 0 20 0
          }
        }
      }
      JOINT right_manubrium
      {
        OFFSET -5.722621 16.35077 3.967754
        CHANNELS 3 Zrotation Xrotation Yrotation
        JOINT right_clavicle
        {
          OFFSET -13.16364 1.694482 -4.693211
          CHANNELS 3 Zrotation Xrotation Yrotation
          JOINT right_humerus
          {
            OFFSET -28.5034 -0.3100689 -2.792744
            CHANNELS 3 Zrotation Xrotation Yrotation
            JOINT right_radius
            {
              OFFSET -25.15693 0.02248979 -1.271978
              CHANNELS 3 Zrotation Xrotation Yrotation
              End Site
              {
                OFFSET -15 0 0
              }
            }
          }
        }
      }
      JOINT left_manubrium
      {
        OFFSET 5.722621 16.35077 3.967754
        CHANNELS 3 Zrotation Xrotation Yrotation
        JOINT left_clavicle
        {
          OFFSET 13.16364 1.694482 -4.693211
          CHANNELS 3 Zrotation Xrotation Yrotation
          JOINT left_humerus
          {
            OFFSET 29.39168 -1.063119 -2.237045
            CHANNELS 3 Zrotation Xrotation Yrotation
            JOINT left_radius
            {
              OFFSET 24.59957 -0.9528479 0.9047498
              CHANNELS 3 Zrotation Xrotation Yrotation
              End Site
              {
                OFFSET 15 -0 -0
              }
            }
          }
        }
      }
    }
  }
}
MOTION
Frames: 15
Frame Time: 0.0416666666667
0 103.5113 0 1.113332 -1.147202 0.09756569 3.348533 -16.28659 9.915403 -0 40.3647 -0 -6.063336 -17.86656 -4.265291 -7.403491 10.93526 -23.86266 -0 5.379192 -0 10.24417 -16.88416 27.99516 -4.360664 -4.257057 4.383893 3.019171 9.573692 -8.124621 1.299505 22.23889 6.222842 2.614325 -24.70402 8.979306 6.307294 -20.13838 11.62442 85.61046 34.11739 -19.18251 -0 0 16.35657 -6.018247 6.572358 4.952691 5.322972 -19.08724 -1.079208 -94.03072 27.02804 22.11681 0 0 -14.73319 6.909554 16.61808 5.718874
0.298782 103.5504 1.337984 0.9549833 -0.7141161 0.1799159 3.737283 -17.37456 10.09515 -0 39.61753 -0 -5.944 -17.2993 -4.183232 -7.328255 11.00277 -23.73631 -0 5.324198 -0 10.27413 -17.10014 27.90266 -4.208285 -4.130456 4.436642 3.012522 9.540381 -8.116493 1.385637 22.01544 6.279876 2.675912 -24.94071 9.137158 6.303585 -20.09412 11.57163 85.61049 34.39458 -19.23504 -0 0 16.39743 -5.900151 6.787313 4.870575 5.471162 -19.10309 -0.9836592 -94.02114 26.92662 22.15897 0 0 -15.07957 7.223759 16.40464 5.593506
0.5228047 103.5654 4.02122 -0.9646974 3.088154 0.5526606 7.32193 -27.51217 10.26279 -0 30.41847 -0 -5.617518 -10.78506 -3.410218 -5.975863 13.12376 -21.57984 -0 6.543421 -0 4.660791 -20.85666 22.9192 -2.202205 -2.76336 4.272257 2.790911 8.745024 -8.321113 1.721167 20.26021 7.39372 3.564993 -26.47921 10.24493 6.105195 -18.97639 10.94671 86.65673 36.28646 -21.39592 -0 0 15.64365 -6.113103 9.511989 4.177157 6.825574 -20.24658 -0.4731227 -94.51975 29.69309 22.93503 0 0 -20.60264 4.995171 15.81796 10.28318
0.7235846 103.2343 7.267286 -1.715898 3.553733 0.9681269 7.856674 -30.51949 8.73065 -0 25.42259 -0 -6.16415 -8.358066 -3.035566 -5.147803 14.16991 -19.77257 -0 8.096016 -0 0.7742662 -22.65879 19.5468 -1.473555 -2.343241 3.879755 2.79971 8.561908 -8.566586 1.639532 19.85288 7.673381 3.884242 -26.51294 10.09829 5.689064 -18.33089 10.77846 87.08923 34.87367 -22.24051 -0 0 15.03883 -7.666214 10.20683 4.255258 7.600139 -21.45568 -0.3274898 -93.9617 29.44663 21.74544 0 0 -21.57776 4.345762 16.32658 10.62192
0.9242018 102.9066 10.79551 -2.082763 4.179079 1.407864 8.533991 -32.079 8.971115 -0 23.92343 -0 -6.262623 -7.36414 -2.921612 -4.933915 14.42817 -19.35234 -0 9.335394 -0 -0.16232 -22.7512 18.56862 -1.102651 -2.071927 3.845815 2.772682 8.421364 -8.580443 1.714288 19.58367 7.820253 4.010223 -26.76209 10.28636 5.704398 -18.04798 10.64921 87.30971 35.37965 -22.59419 -0 0 14.67931 -7.51702 10.61677 4.128845 7.73669 -21.54784 -0.221503 -93.90034 29.79346 21.71331 0 0 -22.3908 4.293621 16.00069 11.10906
1.16656 102.7126 14.342 -2.162991 4.902021 1.868824 9.199353 -32.57864 10.13995 -0 25.17005 -0 -6.04722 -7.356243 -2.758839 -5.165781 14.13712 -19.83898 -0 9.679 -0 1.406227 -21.73873 19.38482 -1.112059 -2.057168 4.012802 2.824384 8.465206 -8.561082 1.748949 19.36468 7.926077 4.042428 -27.17055 10.58273 6.148726 -18.1167 10.70016 87.24032 37.26289 -22.54527 -0 0 14.65134 -6.43771 10.84447 3.924437 7.515227 -21.07734 -0.1418808 -93.92479 29.71026 22.23675 0 0 -22.85852 5.344926 15.27089 10.52836
1.457103 102.5877 17.86057 -2.121068 5.356431 2.343611 9.579556 -32.79841 10.96079 -0 26.42668 -0 -5.817646 -7.346128 -2.509627 -5.472219 13.78957 -20.24918 -0 9.494946 -0 3.375441 -20.56479 20.36585 -1.214936 -1.991556 4.149559 2.854006 8.602823 -8.491026 1.737007 19.28151 8.028454 4.032202 -27.45592 10.82969 6.495223 -18.26559 10.81533 87.25966 39.02883 -22.36636 -0 0 14.47854 -5.594718 11.01762 3.890426 7.23038 -20.64217 -0.2748181 -93.61242 29.35789 22.40091 0 0 -23.47955 6.687801 14.43788 9.510732
1.789043 102.4602 21.47435 -2.231679 5.592746 2.835908 9.793318 -33.29908 10.93902 -0 26.06891 -0 -5.852262 -6.900445 -2.210053 -5.504173 13.69216 -20.00076 -0 9.912753 -0 3.865832 -20.10553 20.2502 -1.172017 -1.896023 4.141623 2.908054 8.70277 -8.514542 1.667788 19.18179 8.120577 4.081379 -27.59041 10.86315 6.591697 -18.23675 10.88989 87.31205 39.61012 -22.35209 -0 0 14.23408 -5.537477 11.1608 3.932873 7.235869 -20.69152 -0.3400732 -93.17018 28.67173 22.05082 0 0 -23.80982 7.677832 14.02681 8.395214
2.158079 102.3347 25.33562 -2.583661 5.872766 3.349569 10.12906 -34.18887 10.54892 -0 24.47785 -0 -6.130693 -6.088795 -1.919914 -5.257565 13.80413 -19.26518 -0 11.46283 -0 2.842838 -20.19242 19.07222 -0.9175559 -1.797625 4.03326 3.000962 8.705893 -8.654965 1.572374 18.96505 8.226914 4.215491 -27.704 10.76852 6.589869 -17.99079 10.89207 87.35845 39.46009 -22.59258 -0 0 13.98867 -5.888872 11.34922 3.905365 7.483885 -21.07982 -0.2081649 -92.8822 27.95518 21.59574 0 0 -23.83183 8.167372 13.96809 7.569666
2.56514 102.1983 29.42701 -2.908179 6.035606 3.843455 10.37824 -34.81887 10.1247 -0 22.91527 -0 -6.428579 -5.427358 -1.697312 -5.004337 13.83173 -18.54603 -0 13.16582 -0 1.702816 -20.27635 17.91734 -0.6687451 -1.696486 3.935037 3.075027 8.687354 -8.76565 1.495312 18.79448 8.29771 4.333191 -27.76251 10.65198 6.54865 -17.74226 10.87485 87.37241 39.13138 -22.77887 -0 0 13.77804 -6.266317 11.46567 3.877229 7.720318 -21.43125 -0.07180007 -92.69513 27.32567 21.19398 0 0 -23.65936 8.492729 13.96665 6.901953
3.016431 102.0631 33.6507 -3.078332 6.120713 4.306616 10.49428 -35.0825 9.837275 -0 22.08662 -0 -6.599148 -5.015915 -1.467338 -4.91207 13.72359 -18.09785 -0 14.24296 -0 1.385509 -20.07235 17.36529 -0.559404 -1.630783 3.894168 3.13195 8.73392 -8.822637 1.415307 18.70457 8.35581 4.40827 -27.8013 10.57056 6.558139 -17.62725 10.91045 87.37363 39.13678 -22.82441 -0 0 13.60502 -6.468526 11.52347 3.887994 7.825628 -21.61927 -0.05199542 -92.45974 26.67499 20.87522 0 0 -23.57975 9.046033 13.80958 6.05867
3.517968 101.938 37.92637 -3.105538 6.17456 4.747615 10.49195 -35.13992 9.614818 -0 21.88212 -0 -6.64767 -4.702163 -1.163795 -4.982869 13.56708 -17.86271 -0 14.60169 -0 1.918528 -19.60465 17.34168 -0.5884767 -1.609827 3.893881 3.184298 8.871393 -8.854157 1.30642 18.67445 8.428456 4.457301 -27.83271 10.5143 6.622126 -17.64382 11.01839 87.40846 39.52794 -22.79017 -0 0 13.42207 -6.55358 11.56643 3.952704 7.818489 -21.71477 -0.1747751 -92.07688 25.89739 20.55284 0 0 -23.75651 9.929444 13.46853 4.894858
4.068939 101.7999 42.22316 -3.02993 6.121369 5.168575 10.33199 -35.07058 9.239266 -0 21.77319 -0 -6.663383 -4.357513 -0.8102305 -5.128962 13.42896 -17.64904 -0 14.55385 -0 2.795183 -19.06005 17.50728 -0.6883816 -1.590821 3.895325 3.21505 9.06213 -8.856781 1.179733 18.71617 8.501426 4.487657 -27.79991 10.44226 6.638268 -17.71688 11.15738 87.5165 39.93983 -22.72419 -0 0 13.1605 -6.721764 11.58467 4.089862 7.766553 -21.82078 -0.4278196 -91.53829 25.02348 20.09352 0 0 -24.14263 10.9498 13.04825 3.551805
4.665493 101.6337 46.57192 -2.943976 5.970211 5.576231 10.08299 -34.96642 8.640125 -0 21.32579 -0 -6.743257 -3.904783 -0.4524851 -5.238406 13.3373 -17.29618 -0 14.68238 -0 3.403309 -18.5963 17.47571 -0.7609004 -1.549793 3.869845 3.225181 9.246461 -8.849711 1.048787 18.79452 8.566331 4.519595 -27.69637 10.3268 6.563466 -17.75212 11.27914 87.68877 40.09713 -22.69715 -0 0 12.81296 -7.070362 11.58628 4.262768 7.741214 -22.00949 -0.7225752 -90.95437 24.13867 19.5081 0 0 -24.56857 11.85798 12.67897 2.26391
5.306737 101.4552 51.04213 -2.934633 5.811285 5.977098 9.8752 -34.89423 7.917178 -0 20.4647 -0 -6.931969 -3.326593 -0.1113744 -5.250891 13.28453 -16.75731 -0 15.45782 -0 3.442457 -18.21857 17.04345 -0.7398843 -1.499677 3.811758 3.237484 9.394225 -8.871444 0.9106793 18.84853 8.632644 4.573269 -27.57176 10.16642 6.437184 -17.70158 11.36887 87.8994 40.0035 -22.77767 -0 0 12.41531 -7.548622 11.60147 4.414341 7.766872 -22.29398 -0.968999 -90.44313 23.29953 18.91604 0 0 -24.90936 12.53746 12.40979 1.17059
